<?xml version="1.0" encoding="UTF-8" standalone="no"?>
<!DOCTYPE svg PUBLIC "-//W3C//DTD SVG 1.1//EN" "http://www.w3.org/Graphics/SVG/1.1/DTD/svg11.dtd">
<svg width="100%" height="100%" viewBox="0 0 64 64" version="1.1" xmlns="http://www.w3.org/2000/svg" xmlns:xlink="http://www.w3.org/1999/xlink" xml:space="preserve" xmlns:serif="http://www.serif.com/" style="fill-rule:evenodd;clip-rule:evenodd;stroke-linejoin:round;stroke-miterlimit:2;">
    <g transform="matrix(0.939509,0,0,0.978932,8.47093,-0.732598)">
        <g transform="matrix(52.9598,0,0,52.9598,-7.96535,47.1425)">
            <path d="M0.234,0.21C0.185,0.149 0.144,0.078 0.111,-0.004C0.077,-0.086 0.061,-0.171 0.061,-0.259C0.061,-0.337 0.073,-0.411 0.098,-0.482C0.127,-0.564 0.173,-0.646 0.234,-0.728L0.297,-0.728C0.257,-0.66 0.231,-0.612 0.219,-0.583C0.199,-0.538 0.183,-0.491 0.172,-0.442C0.158,-0.382 0.151,-0.32 0.151,-0.259C0.151,-0.102 0.2,0.054 0.297,0.21L0.234,0.21Z" style="fill:rgb(128,128,128);fill-rule:nonzero;"/>
        </g>
        <g transform="matrix(52.9598,0,0,52.9598,9.67067,47.1425)">
            <path d="M0.23,-0.176C0.23,-0.188 0.23,-0.197 0.23,-0.203C0.23,-0.237 0.235,-0.267 0.245,-0.292C0.252,-0.311 0.263,-0.33 0.279,-0.349C0.291,-0.363 0.312,-0.384 0.343,-0.41C0.373,-0.437 0.393,-0.459 0.402,-0.475C0.411,-0.491 0.416,-0.508 0.416,-0.527C0.416,-0.561 0.402,-0.591 0.375,-0.617C0.349,-0.643 0.316,-0.656 0.277,-0.656C0.24,-0.656 0.209,-0.644 0.184,-0.621C0.159,-0.597 0.142,-0.561 0.134,-0.511L0.044,-0.521C0.052,-0.588 0.076,-0.639 0.116,-0.675C0.157,-0.71 0.21,-0.728 0.276,-0.728C0.346,-0.728 0.402,-0.709 0.443,-0.671C0.485,-0.633 0.506,-0.587 0.506,-0.533C0.506,-0.501 0.499,-0.473 0.484,-0.446C0.469,-0.42 0.441,-0.388 0.398,-0.35C0.369,-0.325 0.351,-0.306 0.342,-0.294C0.333,-0.282 0.326,-0.268 0.322,-0.252C0.318,-0.237 0.316,-0.211 0.315,-0.176L0.23,-0.176ZM0.225,-0L0.225,-0.1L0.325,-0.1L0.325,-0L0.225,-0Z" style="fill:rgb(128,128,128);fill-rule:nonzero;"/>
        </g>
        <g transform="matrix(52.9598,0,0,52.9598,39.1244,47.1425)">
            <path d="M0.124,0.21L0.061,0.21C0.158,0.054 0.207,-0.102 0.207,-0.259C0.207,-0.32 0.2,-0.381 0.186,-0.441C0.174,-0.49 0.159,-0.537 0.139,-0.582C0.126,-0.611 0.1,-0.66 0.061,-0.728L0.124,-0.728C0.185,-0.646 0.23,-0.564 0.259,-0.482C0.284,-0.411 0.297,-0.337 0.297,-0.259C0.297,-0.171 0.28,-0.086 0.246,-0.004C0.213,0.078 0.172,0.149 0.124,0.21Z" style="fill:rgb(128,128,128);fill-rule:nonzero;"/>
        </g>
    </g>
</svg>
