<?xml version="1.0" encoding="UTF-8" standalone="no"?>
<!DOCTYPE svg PUBLIC "-//W3C//DTD SVG 1.1//EN" "http://www.w3.org/Graphics/SVG/1.1/DTD/svg11.dtd">
<svg width="100%" height="100%" viewBox="0 0 64 64" version="1.1" xmlns="http://www.w3.org/2000/svg" xmlns:xlink="http://www.w3.org/1999/xlink" xml:space="preserve" xmlns:serif="http://www.serif.com/" style="fill-rule:evenodd;clip-rule:evenodd;stroke-linejoin:round;stroke-miterlimit:2;">
    <g transform="matrix(-0.884342,0,0,0.764992,63.5374,7.52026)">
        <path d="M32,60L4,60L4,44.894L9.1,44.894L9.1,19.106L4,19.106L4,4L32,4L32,19.106L17.195,19.106L17.195,44.894L32,44.894L32,60Z" style="fill:rgb(128,128,128);"/>
    </g>
    <g transform="matrix(6.43794e-17,1.05139,-1.04156,6.3777e-17,49.314,2.66726)">
        <path d="M15.493,43.506L10.138,43.506L15.493,34.341L15.493,43.506ZM19.333,27.772L22.484,22.38L22.484,43.506L19.333,43.506L19.333,27.772ZM26.323,15.81L27.899,13.114L29.474,15.81L29.474,43.506L26.323,43.506L26.323,15.81ZM33.314,22.38L36.465,27.772L36.465,43.506L33.314,43.506L33.314,22.38ZM40.304,34.341L45.66,43.506L40.304,43.506L40.304,34.341Z" style="fill:rgb(128,128,128);"/>
    </g>
</svg>
